<?xml version="1.0" encoding="UTF-8"?>
<svg width="1268px" height="1366px" viewBox="0 0 1268 1366" version="1.1" xmlns="http://www.w3.org/2000/svg" xmlns:xlink="http://www.w3.org/1999/xlink">
    <!-- Generator: Sketch 49 (51002) - http://www.bohemiancoding.com/sketch -->
    <title>Artboard 4</title>
    <desc>Created with Sketch.</desc>
    <defs>
        <linearGradient x1="12.609296%" y1="85.0974453%" x2="116.590289%" y2="-4.27755407%" id="linearGradient-1">
            <stop stop-color="#2C2A79" offset="0%"></stop>
            <stop stop-color="#EE4037" offset="100%"></stop>
        </linearGradient>
        <linearGradient x1="93.200985%" y1="11.418211%" x2="12.609296%" y2="85.0974453%" id="linearGradient-2">
            <stop stop-color="#2C2A79" offset="0%"></stop>
            <stop stop-color="#EE4037" offset="100%"></stop>
        </linearGradient>
        <filter x="0.0%" y="0.0%" width="100.0%" height="100.0%" filterUnits="objectBoundingBox" id="filter-3">
            <feGaussianBlur stdDeviation="0 0" in="SourceGraphic"></feGaussianBlur>
        </filter>
        <linearGradient x1="12.609296%" y1="85.0974453%" x2="93.200985%" y2="11.418211%" id="linearGradient-4">
            <stop stop-color="#2C2A79" offset="0%"></stop>
            <stop stop-color="#585FF8" offset="100%"></stop>
        </linearGradient>
    </defs>
    <g id="Artboard-4" stroke="none" stroke-width="1" fill="none" fill-rule="evenodd">
        <g id="Group" transform="translate(93.000000, 67.000000)">
            <circle id="Oval-Copy-2" fill="url(#linearGradient-1)" cx="540.5" cy="522.5" r="522.5"></circle>
            <circle id="Oval-Copy-2" fill="url(#linearGradient-2)" filter="url(#filter-3)" cx="998.5" cy="108.5" r="64.5"></circle>
        </g>
        <path d="M506.4,825.2 C492.533264,839.333404 475.000106,846.4 453.8,846.4 C432.599894,846.4 415.133402,839.40007 401.4,825.4 C387.666598,811.39993 380.8,794.4001 380.8,774.4 L380.8,774 C380.8,753.9999 387.733264,736.933404 401.6,722.8 C415.466736,708.666596 432.999894,701.6 454.2,701.6 C475.400106,701.6 492.866598,708.59993 506.6,722.6 C520.333402,736.60007 527.2,753.5999 527.2,773.6 L527.2,774 C527.2,794.0001 520.266736,811.066596 506.4,825.2 Z M420,809.4 C429.066712,819.000048 440.466598,823.8 454.2,823.8 C467.933402,823.8 479.233289,819.033381 488.1,809.5 C496.966711,799.966619 501.4,788.266736 501.4,774.4 L501.4,774 C501.4,760.133264 496.900045,748.366715 487.9,738.7 C478.899955,729.033285 467.533402,724.2 453.8,724.2 C440.066598,724.2 428.766711,728.966619 419.9,738.5 C411.033289,748.033381 406.6,759.733264 406.6,773.6 L406.6,774 C406.6,787.866736 411.066622,799.666618 420,809.4 Z M554.2,844 L554.2,738.4 L578.4,738.4 L578.4,762.2 C585.866704,744.19991 598.333246,735.599996 615.8,736.4 L615.8,762 L614.4,762 C603.466612,762 594.733366,765.566631 588.2,772.7 C581.666634,779.833369 578.4,790.199932 578.4,803.8 L578.4,844 L554.2,844 Z M696.8,846.2 C682.266594,846.2 670.33338,840.000062 661,827.6 L661,844 L636.8,844 L636.8,698 L661,698 L661,756 C670.33338,742.799934 682.266594,736.2 696.8,736.2 C710.1334,736.2 721.666618,741.166617 731.4,751.1 C741.133382,761.033383 746,774.33325 746,791 L746,791.4 C746,808.06675 741.133382,821.366617 731.4,831.3 C721.666618,841.233383 710.1334,846.2 696.8,846.2 Z M691.2,825.2 C699.733376,825.2 706.899971,822.100031 712.7,815.9 C718.500029,809.699969 721.4,801.533384 721.4,791.4 L721.4,791 C721.4,780.99995 718.466696,772.866698 712.6,766.6 C706.733304,760.333302 699.600042,757.2 691.2,757.2 C682.799958,757.2 675.566697,760.366635 669.5,766.7 C663.433303,773.033365 660.4,781.133284 660.4,791 L660.4,791.4 C660.4,801.266716 663.433303,809.366635 669.5,815.7 C675.566697,822.033365 682.799958,825.2 691.2,825.2 Z M771.2,722.2 L771.2,699.2 L797.2,699.2 L797.2,722.2 L771.2,722.2 Z M772.2,844 L772.2,738.4 L796.4,738.4 L796.4,844 L772.2,844 Z M863.4,845.8 C843.133232,845.8 833,835.46677 833,814.8 L833,759.2 L819.6,759.2 L819.6,738.4 L833,738.4 L833,709.4 L857.2,709.4 L857.2,738.4 L885.6,738.4 L885.6,759.2 L857.2,759.2 L857.2,811 C857.2,819.800044 861.53329,824.2 870.2,824.2 C875.400026,824.2 880.399976,823.000012 885.2,820.6 L885.2,840.4 C878.799968,844.000018 871.533374,845.8 863.4,845.8 Z M908.4,844 L908.4,816.6 L935,816.6 L935,844 L908.4,844 Z" id="Orbit." fill="#FFFFFF"></path>
        <circle id="Oval-Copy" fill="url(#linearGradient-4)" cx="369" cy="1080" r="150"></circle>
    </g>
</svg>